# Blender 3.5.0
# www.blender.org
o Cube
v -0.931005 2.145388 2.744229
v -0.931005 -2.489797 2.744229
v -0.931005 2.145388 4.109806
v -0.931005 -2.489797 4.109806
v -2.296582 2.145388 2.744229
v -2.296582 -2.489797 2.744229
v -2.296582 2.145388 4.109806
v -2.296582 -2.489797 4.109806
v -0.931005 0.642373 2.744229
v -2.296582 0.642373 4.109806
v -0.931005 0.642373 4.109806
v -2.296582 0.642373 2.744229
v -0.931005 -0.940062 2.744229
v -0.931005 -0.940062 4.109806
v -2.296582 -0.940062 2.744229
v -2.296582 -0.940063 4.109806
v -2.060723 -0.666748 3.873947
v -2.060723 0.369059 3.873947
v -2.060723 0.369059 2.980088
v -1.166864 0.369059 2.980088
v -1.166864 0.369059 3.873947
v -1.166864 -0.666748 2.980088
v -1.166864 -0.666748 3.873947
v -2.060723 -0.666748 2.980088
vn -0.0000 1.0000 -0.0000
vn -0.0000 -0.0000 1.0000
vn -1.0000 -0.0000 -0.0000
vn -0.0000 -1.0000 -0.0000
vn 1.0000 -0.0000 -0.0000
vn -0.0000 -0.0000 -1.0000
vn -0.7571 0.6533 -0.0000
vn -0.0000 -0.6533 -0.7571
vn -0.0000 0.6533 -0.7571
vn -0.7571 -0.6533 -0.0000
vn -0.0000 -0.6533 0.7571
vn 0.7571 -0.6533 -0.0000
vn 0.7571 0.6533 -0.0000
vn -0.0000 0.6533 0.7571
s 0
f 1//1 5//1 7//1 3//1
f 11//2 3//2 7//2 10//2
f 10//3 7//3 5//3 12//3
f 6//4 2//4 4//4 8//4
f 9//5 1//5 3//5 11//5
f 12//6 5//6 1//6 9//6
f 15//7 16//7 17//7 24//7
f 12//8 9//8 20//8 19//8
f 13//9 15//9 24//9 22//9
f 10//10 12//10 19//10 18//10
f 4//2 14//2 16//2 8//2
f 8//3 16//3 15//3 6//3
f 2//5 13//5 14//5 4//5
f 6//6 15//6 13//6 2//6
f 24//6 19//6 20//6 22//6
f 22//5 20//5 21//5 23//5
f 17//3 18//3 19//3 24//3
f 23//2 21//2 18//2 17//2
f 11//11 10//11 18//11 21//11
f 9//12 11//12 21//12 20//12
f 14//13 13//13 22//13 23//13
f 16//14 14//14 23//14 17//14
o Cube.002
v 3.696716 3.518528 -5.391479
v 3.696716 -3.270083 -5.391479
v 3.696716 3.518528 -3.391479
v 3.696716 -3.270083 -3.391479
v 1.696716 3.518528 -5.391479
v 1.696716 -3.270083 -5.391479
v 1.696716 3.518528 -3.391479
v 1.696716 -3.270083 -3.391479
v 3.696716 1.317238 -5.391479
v 1.696716 1.317238 -3.391479
v 3.696716 1.317238 -3.391479
v 1.696716 1.317238 -5.391479
v 3.696716 -1.000369 -5.391479
v 3.696716 -1.000369 -3.391479
v 1.696716 -1.000369 -5.391479
v 1.696716 -1.000369 -3.391479
v 2.042151 -0.600078 -3.736914
v 2.042151 0.916947 -3.736914
v 2.042151 0.916947 -5.046044
v 3.351281 0.916947 -5.046044
v 3.351281 0.916947 -3.736914
v 3.351281 -0.600078 -5.046044
v 3.351281 -0.600078 -3.736914
v 2.042151 -0.600078 -5.046044
vn -0.0000 1.0000 -0.0000
vn -0.0000 -0.0000 1.0000
vn -1.0000 -0.0000 -0.0000
vn -0.0000 -1.0000 -0.0000
vn 1.0000 -0.0000 -0.0000
vn -0.0000 -0.0000 -1.0000
vn -0.7571 0.6533 -0.0000
vn -0.0000 -0.6533 -0.7571
vn -0.0000 0.6533 -0.7571
vn -0.7571 -0.6533 -0.0000
vn -0.0000 -0.6533 0.7571
vn 0.7571 -0.6533 -0.0000
vn 0.7571 0.6533 -0.0000
vn -0.0000 0.6533 0.7571
s 0
f 25//15 29//15 31//15 27//15
f 35//16 27//16 31//16 34//16
f 34//17 31//17 29//17 36//17
f 30//18 26//18 28//18 32//18
f 33//19 25//19 27//19 35//19
f 36//20 29//20 25//20 33//20
f 39//21 40//21 41//21 48//21
f 36//22 33//22 44//22 43//22
f 37//23 39//23 48//23 46//23
f 34//24 36//24 43//24 42//24
f 28//16 38//16 40//16 32//16
f 32//17 40//17 39//17 30//17
f 26//19 37//19 38//19 28//19
f 30//20 39//20 37//20 26//20
f 48//20 43//20 44//20 46//20
f 46//19 44//19 45//19 47//19
f 41//17 42//17 43//17 48//17
f 47//16 45//16 42//16 41//16
f 35//25 34//25 42//25 45//25
f 33//26 35//26 45//26 44//26
f 38//27 37//27 46//27 47//27
f 40//28 38//28 47//28 41//28
o Cube.001
v 0.146834 1.286468 0.385164
v 0.146834 -1.248416 0.385164
v 0.146834 1.286468 1.131969
v 0.146834 -1.248416 1.131969
v -0.599971 1.286468 0.385164
v -0.599971 -1.248416 0.385164
v -0.599971 1.286468 1.131969
v -0.599971 -1.248416 1.131969
v 0.146834 0.464501 0.385164
v -0.599971 0.464501 1.131969
v 0.146834 0.464501 1.131969
v -0.599971 0.464501 0.385164
v 0.146834 -0.400899 0.385164
v 0.146834 -0.400899 1.131969
v -0.599971 -0.400899 0.385164
v -0.599971 -0.400899 1.131969
v -0.470985 -0.251430 1.002983
v -0.470985 0.315031 1.002983
v -0.470985 0.315031 0.514151
v 0.017848 0.315031 0.514151
v 0.017848 0.315031 1.002983
v 0.017848 -0.251430 0.514151
v 0.017848 -0.251430 1.002983
v -0.470985 -0.251430 0.514151
vn -0.0000 1.0000 -0.0000
vn -0.0000 -0.0000 1.0000
vn -1.0000 -0.0000 -0.0000
vn -0.0000 -1.0000 -0.0000
vn 1.0000 -0.0000 -0.0000
vn -0.0000 -0.0000 -1.0000
vn -0.7571 0.6533 -0.0000
vn -0.0000 -0.6533 -0.7571
vn -0.0000 0.6533 -0.7571
vn -0.7571 -0.6533 -0.0000
vn -0.0000 -0.6533 0.7571
vn 0.7571 -0.6533 -0.0000
vn 0.7571 0.6533 -0.0000
vn -0.0000 0.6533 0.7571
s 0
f 49//29 53//29 55//29 51//29
f 59//30 51//30 55//30 58//30
f 58//31 55//31 53//31 60//31
f 54//32 50//32 52//32 56//32
f 57//33 49//33 51//33 59//33
f 60//34 53//34 49//34 57//34
f 63//35 64//35 65//35 72//35
f 60//36 57//36 68//36 67//36
f 61//37 63//37 72//37 70//37
f 58//38 60//38 67//38 66//38
f 52//30 62//30 64//30 56//30
f 56//31 64//31 63//31 54//31
f 50//33 61//33 62//33 52//33
f 54//34 63//34 61//34 50//34
f 72//34 67//34 68//34 70//34
f 70//33 68//33 69//33 71//33
f 65//31 66//31 67//31 72//31
f 71//30 69//30 66//30 65//30
f 59//39 58//39 66//39 69//39
f 57//40 59//40 69//40 68//40
f 62//41 61//41 70//41 71//41
f 64//42 62//42 71//42 65//42
