# Blender 3.5.0
# www.blender.org
mtllib pillar2.mtl
o Cube
v -0.613793 3.222101 2.427017
v -0.613793 -3.566510 2.427017
v -0.613793 3.222101 4.427017
v -0.613793 -3.566510 4.427017
v -2.613793 3.222101 2.427017
v -2.613793 -3.566510 2.427017
v -2.613793 3.222101 4.427017
v -2.613793 -3.566510 4.427017
v -0.613793 1.020811 2.427017
v -2.613793 1.020811 4.427017
v -0.613793 1.020811 4.427017
v -2.613793 1.020811 2.427017
v -0.613793 -1.296796 2.427017
v -0.613793 -1.296796 4.427017
v -2.613793 -1.296796 2.427017
v -2.613793 -1.296796 4.427017
v -2.268359 -0.896505 4.081583
v -2.268359 0.620520 4.081583
v -2.268359 0.620520 2.772452
v -0.959228 0.620520 2.772452
v -0.959228 0.620520 4.081583
v -0.959228 -0.896505 2.772452
v -0.959228 -0.896505 4.081583
v -2.268359 -0.896505 2.772452
vn -0.0000 1.0000 -0.0000
vn -0.0000 -0.0000 1.0000
vn -1.0000 -0.0000 -0.0000
vn -0.0000 -1.0000 -0.0000
vn 1.0000 -0.0000 -0.0000
vn -0.0000 -0.0000 -1.0000
vn -0.7571 0.6533 -0.0000
vn -0.0000 -0.6533 -0.7571
vn -0.0000 0.6533 -0.7571
vn -0.7571 -0.6533 -0.0000
vn -0.0000 -0.6533 0.7571
vn 0.7571 -0.6533 -0.0000
vn 0.7571 0.6533 -0.0000
vn -0.0000 0.6533 0.7571
vt 0.625000 0.500000
vt 0.375000 0.500000
vt 0.625000 0.750000
vt 0.375000 0.750000
vt 0.875000 0.500000
vt 0.625000 0.250000
vt 0.125000 0.500000
vt 0.375000 0.250000
vt 0.875000 0.750000
vt 0.625000 1.000000
vt 0.625000 0.000000
vt 0.125000 0.750000
vt 0.375000 1.000000
vt 0.375000 0.000000
vt 0.543934 0.500000
vt 0.543934 0.000000
vt 0.543934 1.000000
vt 0.543934 0.750000
vt 0.543934 0.250000
vt 0.458585 0.500000
vt 0.458585 0.750000
vt 0.458585 0.250000
vt 0.458585 0.000000
vt 0.458585 1.000000
vt 0.458585 0.000000
vt 0.458585 1.000000
vt 0.543934 0.000000
vt 0.543934 1.000000
vt 0.543934 0.250000
vt 0.543934 0.500000
vt 0.543934 0.750000
vt 0.458585 0.500000
vt 0.458585 0.750000
vt 0.458585 0.250000
s 0
usemtl Material
f 1/1/1 5/5/1 7/9/1 3/3/1
f 11/18/2 3/3/2 7/10/2 10/17/2
f 10/16/3 7/11/3 5/6/3 12/19/3
f 6/7/4 2/2/4 4/4/4 8/12/4
f 9/15/5 1/1/5 3/3/5 11/18/5
f 12/19/6 5/6/6 1/1/6 9/15/6
f 15/22/7 16/23/7 17/25/7 24/34/7
f 12/19/8 9/15/8 20/30/8 19/29/8
f 13/20/9 15/22/9 24/34/9 22/32/9
f 10/16/10 12/19/10 19/29/10 18/27/10
f 4/4/2 14/21/2 16/24/2 8/13/2
f 8/14/3 16/23/3 15/22/3 6/8/3
f 2/2/5 13/20/5 14/21/5 4/4/5
f 6/8/6 15/22/6 13/20/6 2/2/6
f 24/34/6 19/29/6 20/30/6 22/32/6
f 22/32/5 20/30/5 21/31/5 23/33/5
f 17/25/3 18/27/3 19/29/3 24/34/3
f 23/33/2 21/31/2 18/28/2 17/26/2
f 11/18/11 10/17/11 18/28/11 21/31/11
f 9/15/12 11/18/12 21/31/12 20/30/12
f 14/21/13 13/20/13 22/32/13 23/33/13
f 16/24/14 14/21/14 23/33/14 17/26/14
