# Blender 3.5.0
# www.blender.org
mtllib plane.mtl
o Cube.001
v -0.821846 -0.047397 0.002236
v -0.716727 -0.005415 -0.027134
v -0.730626 -0.043738 -0.038191
v -0.285162 -0.048782 -0.160374
v -0.234256 0.040125 -0.160920
v -0.178205 0.030965 -0.238784
v -0.186359 -0.027861 -0.202792
v -0.692622 -0.081612 0.002396
v -0.476696 0.008918 -0.087669
v -0.504369 0.018070 -0.037220
v -0.486138 0.064355 0.001889
v -0.441375 0.058933 0.001921
v -0.039105 0.002690 -0.587583
v -0.027236 0.017605 -0.338623
v 0.127925 0.013169 -0.343556
v 0.106416 0.003954 -0.583484
v -0.209190 0.056399 0.001986
v -0.216920 -0.100880 0.002582
v -0.021306 -0.030364 -0.143397
v -0.013461 -0.088708 0.002583
v -0.015584 0.053218 0.002043
v -0.023652 0.031326 -0.216108
v -0.447378 -0.100454 0.002527
v -0.533038 -0.076208 -0.079180
v -0.693567 0.012195 0.002040
v -0.590835 0.044374 -0.027712
v -0.579243 -0.034801 -0.050054
v -0.557076 -0.090239 0.002461
v -0.586828 0.065107 0.001863
v -0.520531 -0.046109 -0.050672
v -0.464415 -0.092789 0.002493
v 0.106964 -0.002795 -0.583694
v 0.168968 0.017849 -0.332031
v 0.171684 0.004550 -0.332251
v 0.138806 -0.024587 -0.146553
v 0.150787 -0.084710 0.002607
v -0.038916 -0.005352 -0.587942
v 0.221888 -0.066247 0.002553
v 0.216681 0.007722 -0.149864
v 0.307891 0.002915 -0.285916
v 0.289815 -0.037061 -0.079471
v 0.319567 -0.055304 0.002534
v 0.305774 -0.031524 -0.063424
v 0.387521 -0.018518 -0.045593
v 0.394296 -0.030370 0.002458
v 0.215785 0.039065 -0.189042
v 0.214263 0.054115 -0.131299
v 0.269913 0.051766 -0.125385
v 0.267992 0.063598 -0.120038
v 0.210213 0.060798 -0.099197
v 0.218694 0.046569 0.002123
v 0.318939 0.042702 0.002162
v 0.308357 0.040088 -0.079661
v 0.309337 0.015035 -0.286160
v 0.385052 0.017002 -0.044175
v 0.392062 0.025676 0.002244
v 0.426563 0.013332 -0.107936
v 0.378054 0.008520 -0.290534
v 0.379220 0.002928 -0.293702
v -0.026070 -0.012943 -0.339627
v -0.131930 0.001946 -0.364741
v 0.124844 -0.011334 -0.340850
v -0.138954 0.017028 -0.350116
v 0.138407 0.030160 -0.212884
v 0.425338 0.000499 -0.108361
v 0.307190 0.001622 -0.061832
v 0.149077 0.055376 0.002073
v 0.152084 0.053188 -0.103909
v 0.132440 0.059162 -0.118938
v 0.152932 0.057333 -0.133202
v 0.260600 0.201197 -0.161176
v 0.309962 0.202918 -0.161703
v 0.203400 0.173285 -0.155752
v -0.730645 -0.043430 0.042677
v -0.716741 -0.005194 0.031335
v -0.285238 -0.047544 0.165105
v -0.186455 -0.026300 0.207409
v -0.178319 0.032798 0.242957
v -0.234333 0.041365 0.164998
v -0.476739 0.009601 0.091871
v -0.504387 0.018369 0.041343
v -0.039383 0.007178 0.592024
v 0.106141 0.008411 0.587985
v 0.127762 0.015800 0.348004
v -0.027396 0.020198 0.342965
v -0.021374 -0.029254 0.148113
v -0.023755 0.032986 0.220351
v -0.533076 -0.075587 0.084005
v -0.579267 -0.034403 0.054543
v -0.590849 0.044600 0.031593
v -0.520555 -0.045706 0.055275
v 0.106689 0.001664 0.588247
v 0.171527 0.007095 0.336785
v 0.168810 0.020393 0.336463
v 0.138735 -0.023453 0.151299
v -0.039193 -0.000861 0.592444
v 0.289776 -0.036437 0.084385
v 0.307756 0.005108 0.290528
v 0.216609 0.008880 0.154401
v 0.387498 -0.018153 0.050412
v 0.305743 -0.031023 0.068304
v 0.215694 0.040520 0.193339
v 0.309201 0.017229 0.290681
v 0.308318 0.040711 0.083997
v 0.210165 0.061569 0.103328
v 0.267934 0.064527 0.124174
v 0.269853 0.052737 0.129612
v 0.214201 0.055130 0.135482
v 0.385031 0.017356 0.048724
v 0.377916 0.010748 0.295137
v 0.426511 0.014172 0.112530
v 0.379081 0.005181 0.298348
v -0.026231 -0.010341 0.344201
v -0.132103 0.004738 0.369152
v 0.124682 -0.008722 0.345483
v -0.139119 0.019709 0.354410
v 0.138305 0.031796 0.217211
v 0.425286 0.001341 0.113051
v 0.307161 0.002110 0.066461
v 0.152869 0.058362 0.137332
v 0.132382 0.060083 0.123045
v 0.152034 0.053994 0.108071
v 0.309886 0.204160 0.164798
v 0.260524 0.202434 0.164261
v 0.203326 0.174483 0.159022
vn -0.3871 0.3825 -0.8390
vn -0.6151 0.0513 -0.7868
vn -0.2127 -0.8057 -0.5528
vn -0.2039 0.8227 -0.5307
vn 0.0029 0.9983 -0.0579
vn 0.0016 0.9982 -0.0599
vn 0.0104 0.9987 -0.0500
vn -0.0942 0.9682 -0.2317
vn 0.0755 -0.9372 -0.3405
vn 0.0154 0.9947 -0.1019
vn 0.0030 -0.9541 -0.2996
vn -0.3129 0.1441 -0.9388
vn -0.4123 0.8870 -0.2080
vn -0.1009 0.2739 -0.9565
vn -0.0280 -0.7150 -0.6986
vn -0.3748 0.8461 -0.3789
vn -0.0049 0.2424 -0.9702
vn -0.0706 -0.7429 -0.6656
vn 0.9552 0.1609 -0.2485
vn 0.0243 -0.9272 -0.3738
vn 0.0281 0.0398 -0.9988
vn -0.1906 -0.9368 -0.2935
vn 0.2871 -0.8691 -0.4028
vn -0.1053 0.9940 -0.0287
vn 0.3006 -0.8916 -0.3386
vn 0.1616 0.9855 -0.0521
vn -0.7231 -0.4590 -0.5162
vn 0.9884 0.0526 -0.1424
vn 0.1584 0.9828 -0.0948
vn -0.0778 0.1636 -0.9835
vn -0.8320 0.4162 -0.3667
vn -0.7203 -0.4707 0.5096
vn 0.0658 0.7034 -0.7077
vn -0.1338 -0.9907 -0.0234
vn 0.3301 -0.9422 -0.0574
vn 0.0144 -0.9993 -0.0337
vn 0.0010 0.9982 -0.0599
vn -0.0771 0.9895 -0.1220
vn -0.9224 -0.0387 -0.3843
vn 0.0169 0.9925 -0.1213
vn 0.0166 0.9925 -0.1214
vn 0.0114 0.9932 -0.1161
vn 0.9546 -0.1481 -0.2583
vn 0.9674 0.0455 -0.2491
vn 0.2216 -0.0512 0.9738
vn 0.8463 -0.1466 -0.5121
vn 0.2090 0.0460 -0.9768
vn 0.3854 0.8155 -0.4318
vn 0.1573 -0.9805 -0.1174
vn 0.0225 -0.9966 -0.0794
vn 0.0114 0.9932 -0.1157
vn -0.9415 -0.0803 -0.3274
vn -0.0491 0.9930 -0.1075
vn 0.0156 0.9554 -0.2950
vn -0.0219 -0.9908 -0.1337
vn 0.3623 -0.9285 -0.0815
vn 0.0485 -0.2298 -0.9720
vn 0.0072 0.9983 0.0578
vn 0.1753 0.2906 0.9406
vn -0.4222 0.5053 0.7526
vn 0.8467 -0.0987 0.5228
vn -0.1298 0.4391 0.8890
vn -0.5640 0.0858 -0.8213
vn 0.0125 -0.1999 -0.9797
vn -0.3875 0.3888 0.8358
vn -0.6154 0.0573 0.7861
vn -0.2129 -0.8015 0.5588
vn -0.2041 0.8267 0.5244
vn 0.0029 0.9987 0.0503
vn 0.0104 0.9990 0.0424
vn 0.0017 0.9986 0.0524
vn -0.0943 0.9700 0.2242
vn 0.0753 -0.9346 0.3477
vn 0.0153 0.9954 0.0944
vn 0.0029 -0.9518 0.3069
vn -0.3134 0.1513 0.9375
vn -0.4124 0.8885 0.2011
vn -0.1014 0.2811 0.9543
vn -0.0283 -0.7097 0.7040
vn -0.3750 0.8490 0.3723
vn -0.0053 0.2498 0.9683
vn -0.0709 -0.7379 0.6712
vn 0.9551 0.1628 0.2477
vn 0.0242 -0.9243 0.3809
vn 0.0276 0.0474 0.9985
vn -0.1907 -0.9345 0.3005
vn 0.2869 -0.8660 0.4095
vn -0.1053 0.9942 0.0211
vn 0.3004 -0.8890 0.3455
vn 0.1616 0.9858 0.0446
vn -0.7233 -0.4551 0.5193
vn 0.9883 0.0537 0.1425
vn 0.1583 0.9835 0.0874
vn -0.0783 0.1710 0.9822
vn -0.8322 0.4190 0.3631
vn -0.7200 -0.4745 -0.5064
vn 0.0655 0.7088 0.7023
vn -0.1338 -0.9905 0.0308
vn 0.3300 -0.9418 0.0648
vn 0.0144 -0.9990 0.0413
vn 0.0010 0.9986 0.0523
vn -0.0771 0.9904 0.1144
vn -0.9226 -0.0358 0.3842
vn 0.0168 0.9934 0.1138
vn 0.0117 0.9941 0.1082
vn 0.0170 0.9934 0.1134
vn 0.9545 -0.1461 0.2598
vn 0.9673 0.0474 0.2492
vn 0.2220 -0.0586 -0.9733
vn 0.8461 -0.1427 0.5136
vn 0.2086 0.0534 0.9765
vn 0.3852 0.8187 0.4258
vn 0.1572 -0.9796 0.1249
vn 0.0225 -0.9960 0.0869
vn 0.0113 0.9941 0.1082
vn -0.9416 -0.0778 0.3276
vn -0.0491 0.9938 0.0999
vn 0.0154 0.9576 0.2877
vn -0.0220 -0.9897 0.1412
vn 0.3622 -0.9279 0.0888
vn 0.0480 -0.2224 0.9738
vn 0.0072 0.9978 -0.0654
vn 0.1758 0.2835 -0.9427
vn -0.4218 0.4995 -0.7567
vn 0.8470 -0.1027 -0.5216
vn -0.1293 0.4323 -0.8924
vn -0.5644 0.0920 0.8204
vn 0.0121 -0.1924 0.9812
vt 0.625000 0.375000
vt 0.250000 0.500000
vt 0.750000 0.500000
vt 0.625000 0.455059
vt 0.669941 0.500000
vt 0.460368 0.457316
vt 0.332316 0.500000
vt 0.375000 0.625000
vt 0.625000 0.625000
vt 0.625000 0.644107
vt 0.375000 0.645466
vt 0.250000 0.585087
vt 0.625000 0.500000
vt 0.625000 0.485595
vt 0.639405 0.500000
vt 0.750000 0.618134
vt 0.750000 0.637631
vt 0.625000 0.750000
vt 0.685082 0.750000
vt 0.678329 0.750000
vt 0.625000 0.750000
vt 0.750000 0.693815
vt 0.250000 0.693838
vt 0.286144 0.750000
vt 0.250000 0.750000
vt 0.750000 0.750000
vt 0.705201 0.750000
vt 0.250000 0.637676
vt 0.375000 0.500000
vt 0.750000 0.587988
vt 0.625000 0.473100
vt 0.651900 0.500000
vt 0.417186 0.478907
vt 0.353907 0.500000
vt 0.250000 0.611771
vt 0.750000 0.607322
vt 0.395681 0.489660
vt 0.364660 0.500000
vt 0.250000 0.623669
vt 0.375000 0.750000
vt 0.625000 0.750000
vt 0.375000 0.750000
vt 0.288211 0.750000
vt 0.250000 0.750000
vt 0.375000 0.750000
vt 0.250000 0.750000
vt 0.375000 0.750000
vt 0.375000 0.750000
vt 0.375000 0.750000
vt 0.279177 0.750000
vt 0.250000 0.750000
vt 0.375000 0.750000
vt 0.375000 0.750000
vt 0.250000 0.750000
vt 0.375000 0.875000
vt 0.625000 0.750000
vt 0.648054 0.750000
vt 0.683830 0.750000
vt 0.706345 0.750000
vt 0.671221 0.750000
vt 0.750000 0.750000
vt 0.750000 0.750000
vt 0.625000 0.750000
vt 0.720479 0.750000
vt 0.625000 0.750000
vt 0.625000 0.750000
vt 0.625000 0.875000
vt 0.750000 0.750000
vt 0.625000 0.750000
vt 0.625000 0.750000
vt 0.375000 0.750000
vt 0.316899 0.750000
vt 0.375000 0.677811
vt 0.318115 0.750000
vt 0.625000 0.670758
vt 0.704494 0.750000
vt 0.375000 0.750000
vt 0.625000 0.750000
vt 0.750000 0.750000
vt 0.721932 0.750000
vt 0.715016 0.750000
vt 0.715584 0.750000
vt 0.671221 0.750000
vt 0.648054 0.750000
vt 0.683830 0.750000
vt 0.706345 0.750000
vt 0.715016 0.750000
vt 0.721932 0.750000
vt 0.715584 0.750000
vt 0.460368 0.457316
vt 0.332316 0.500000
vt 0.625000 0.455059
vt 0.669941 0.500000
vt 0.375000 0.625000
vt 0.375000 0.645466
vt 0.625000 0.644107
vt 0.625000 0.625000
vt 0.625000 0.500000
vt 0.625000 0.485595
vt 0.639405 0.500000
vt 0.625000 0.750000
vt 0.625000 0.750000
vt 0.678329 0.750000
vt 0.685082 0.750000
vt 0.286144 0.750000
vt 0.705201 0.750000
vt 0.375000 0.500000
vt 0.417186 0.478907
vt 0.353907 0.500000
vt 0.625000 0.473100
vt 0.651900 0.500000
vt 0.395681 0.489660
vt 0.364660 0.500000
vt 0.375000 0.750000
vt 0.375000 0.750000
vt 0.625000 0.750000
vt 0.288211 0.750000
vt 0.375000 0.750000
vt 0.375000 0.750000
vt 0.279177 0.750000
vt 0.375000 0.750000
vt 0.375000 0.750000
vt 0.375000 0.750000
vt 0.375000 0.750000
vt 0.625000 0.750000
vt 0.625000 0.750000
vt 0.625000 0.750000
vt 0.720479 0.750000
vt 0.671221 0.750000
vt 0.706345 0.750000
vt 0.683830 0.750000
vt 0.648054 0.750000
vt 0.625000 0.750000
vt 0.625000 0.750000
vt 0.625000 0.750000
vt 0.375000 0.750000
vt 0.316899 0.750000
vt 0.375000 0.677811
vt 0.318115 0.750000
vt 0.625000 0.670758
vt 0.704494 0.750000
vt 0.375000 0.750000
vt 0.625000 0.750000
vt 0.715584 0.750000
vt 0.715016 0.750000
vt 0.721932 0.750000
vt 0.683830 0.750000
vt 0.706345 0.750000
vt 0.671221 0.750000
vt 0.648054 0.750000
vt 0.715016 0.750000
vt 0.721932 0.750000
vt 0.715584 0.750000
s 1
usemtl None
f 1/1/1 2/4/1 3/6/1
f 4/8/2 5/9/2 6/10/2 7/11/2
f 1/2/3 3/7/3 8/12/3
f 9/13/4 10/15/4 11/16/4 12/17/4
f 13/18/5 14/19/6 15/20/7 16/21/7
f 12/17/8 17/22/8 5/9/8 9/13/8
f 18/23/9 4/8/9 7/11/9 19/24/9 20/25/9
f 17/22/10 21/26/10 22/27/10 6/10/10 5/9/10
f 23/28/11 24/29/11 4/8/11 18/23/11
f 24/29/12 9/13/12 5/9/12 4/8/12
f 25/30/13 2/5/13 1/3/13
f 3/6/14 2/4/14 26/31/14 27/33/14
f 8/12/15 3/7/15 27/34/15 28/35/15
f 29/36/16 26/32/16 2/5/16 25/30/16
f 27/33/17 26/31/17 10/14/17 30/37/17
f 28/35/18 27/34/18 30/38/18 31/39/18
f 32/40/19 16/21/19 33/41/19 34/42/19
f 20/25/20 19/24/20 35/43/20 36/44/20
f 37/45/21 13/18/21 16/21/21 32/40/21
f 38/46/22 39/47/22 40/48/22 41/50/22 42/51/22
f 36/44/23 35/43/23 39/47/23 38/46/23
f 16/21/24 15/20/24 33/41/24
f 42/51/25 41/49/25 43/52/25 44/53/25 45/54/25
f 46/56/26 47/57/26 48/58/26 49/59/26 50/60/26 51/61/26 52/62/26 53/64/26 54/65/26
f 39/47/27 46/56/27 54/65/27 40/48/27
f 44/53/28 55/66/28 56/67/28 45/55/28
f 54/65/29 53/63/29 57/69/29 58/70/29
f 40/48/30 54/65/30 58/70/30 59/71/30
f 30/37/31 10/14/31 9/13/31 24/29/31
f 31/39/32 30/38/32 24/29/32 23/28/32
f 11/16/33 10/15/33 26/32/33 29/36/33
f 60/72/34 61/73/34 37/45/34
f 34/42/35 62/74/35 32/40/35
f 62/74/36 60/72/36 37/45/36 32/40/36
f 63/75/37 14/19/6 13/18/5
f 33/41/38 15/20/38 64/76/38 46/56/38
f 61/73/39 63/75/39 13/18/39 37/45/39
f 15/20/40 14/19/41 22/27/42 64/76/40
f 34/42/43 33/41/43 46/56/43 39/47/43
f 59/71/44 58/70/44 57/69/44 65/77/44
f 65/77/45 57/69/45 53/63/45 41/49/45
f 41/49/46 53/63/46 66/78/46 43/52/46
f 43/52/47 66/78/47 55/66/47 44/53/47
f 53/64/48 52/62/48 56/68/48 55/66/48 66/78/48
f 41/50/49 40/48/49 59/71/49 65/77/49
f 35/43/50 19/24/50 60/72/50 62/74/50
f 6/10/51 22/27/42 14/19/41 63/75/51
f 7/11/52 6/10/52 63/75/52 61/73/52
f 64/76/53 22/27/53 21/26/53 67/79/53 68/80/53 69/81/53 70/82/53
f 46/56/54 64/76/54 70/82/54 47/57/54
f 19/24/55 7/11/55 61/73/55 60/72/55
f 39/47/56 35/43/56 62/74/56 34/42/56
f 48/58/57 47/57/57 71/84/57 72/85/57
f 50/60/58 68/80/58 67/79/58 51/61/58
f 50/60/59 49/59/59 72/86/59 71/83/59
f 69/81/60 68/80/60 73/87/60
f 49/59/61 48/58/61 72/86/61
f 68/80/62 50/60/62 71/83/62 73/88/62
f 70/82/63 69/81/63 73/89/63
f 70/82/64 73/89/64 71/84/64 47/57/64
f 1/1/65 74/90/65 75/92/65
f 76/94/66 77/95/66 78/96/66 79/97/66
f 1/2/67 8/12/67 74/91/67
f 80/98/68 12/17/68 11/16/68 81/100/68
f 82/101/69 83/102/70 84/103/70 85/104/71
f 12/17/72 80/98/72 79/97/72 17/22/72
f 18/23/73 20/25/73 86/105/73 77/95/73 76/94/73
f 17/22/74 79/97/74 78/96/74 87/106/74 21/26/74
f 23/28/75 18/23/75 76/94/75 88/107/75
f 88/107/76 76/94/76 79/97/76 80/98/76
f 25/30/77 1/3/77 75/93/77
f 74/90/78 89/108/78 90/110/78 75/92/78
f 8/12/79 28/35/79 89/109/79 74/91/79
f 29/36/80 25/30/80 75/93/80 90/111/80
f 89/108/81 91/112/81 81/99/81 90/110/81
f 28/35/82 31/39/82 91/113/82 89/109/82
f 92/114/83 93/115/83 94/116/83 83/102/83
f 20/25/84 36/44/84 95/117/84 86/105/84
f 96/118/85 92/114/85 83/102/85 82/101/85
f 38/46/86 42/51/86 97/120/86 98/121/86 99/122/86
f 36/44/87 38/46/87 99/122/87 95/117/87
f 83/102/88 94/116/88 84/103/88
f 42/51/89 45/54/89 100/123/89 101/124/89 97/119/89
f 102/125/90 103/126/90 104/128/90 52/62/90 51/61/90 105/129/90 106/130/90 107/131/90 108/132/90
f 99/122/91 98/121/91 103/126/91 102/125/91
f 100/123/92 45/55/92 56/67/92 109/133/92
f 103/126/93 110/134/93 111/135/93 104/127/93
f 98/121/94 112/136/94 110/134/94 103/126/94
f 91/112/95 88/107/95 80/98/95 81/99/95
f 31/39/96 23/28/96 88/107/96 91/113/96
f 11/16/97 29/36/97 90/111/97 81/100/97
f 113/137/98 96/118/98 114/138/98
f 93/115/99 92/114/99 115/139/99
f 115/139/100 92/114/100 96/118/100 113/137/100
f 116/140/101 82/101/69 85/104/71
f 94/116/102 102/125/102 117/141/102 84/103/102
f 114/138/103 96/118/103 82/101/103 116/140/103
f 84/103/104 117/141/104 87/106/105 85/104/106
f 93/115/107 99/122/107 102/125/107 94/116/107
f 112/136/108 118/142/108 111/135/108 110/134/108
f 118/142/109 97/119/109 104/127/109 111/135/109
f 97/119/110 101/124/110 119/143/110 104/127/110
f 101/124/111 100/123/111 109/133/111 119/143/111
f 104/128/112 119/143/112 109/133/112 56/68/112 52/62/112
f 97/120/113 118/142/113 112/136/113 98/121/113
f 95/117/114 115/139/114 113/137/114 86/105/114
f 78/96/115 116/140/115 85/104/106 87/106/105
f 77/95/116 114/138/116 116/140/116 78/96/116
f 117/141/117 120/144/117 121/145/117 122/146/117 67/79/117 21/26/117 87/106/117
f 102/125/118 108/132/118 120/144/118 117/141/118
f 86/105/119 113/137/119 114/138/119 77/95/119
f 99/122/120 93/115/120 115/139/120 95/117/120
f 107/131/121 123/147/121 124/150/121 108/132/121
f 105/129/122 51/61/122 67/79/122 122/146/122
f 105/129/123 124/149/123 123/148/123 106/130/123
f 121/145/124 125/151/124 122/146/124
f 106/130/125 123/148/125 107/131/125
f 122/146/126 125/152/126 124/149/126 105/129/126
f 120/144/127 125/153/127 121/145/127
f 120/144/128 108/132/128 124/150/128 125/153/128
